# MagicaVoxel @ Ephtracy

# material
mtllib Tower_Top.mtl
usemtl palette

# normals
vn -1 0 0
vn 1 0 0
vn 0 0 1
vn 0 0 -1
vn 0 -1 0
vn 0 1 0

# texcoords
vt 0.697266 0.5
vt 0.876953 0.5
vt 0.880859 0.5
vt 0.884766 0.5
vt 0.935547 0.5
vt 0.978516 0.5

# verts
v -6 0 3
v -6 0 -3
v -6 1 5
v -6 1 3
v -6 1 2
v -6 1 -2
v -6 1 -3
v -6 1 -5
v -6 2 4
v -6 2 3
v -6 2 2
v -6 2 -2
v -6 2 -3
v -6 2 -4
v -6 3 2
v -6 3 -2
v -6 4 2
v -6 4 -2
v -6 5 4
v -6 5 3
v -6 5 2
v -6 5 -2
v -6 5 -3
v -6 5 -4
v -6 6 5
v -6 6 3
v -6 6 2
v -6 6 -2
v -6 6 -3
v -6 6 -5
v -6 7 3
v -6 7 -3
v -5 1 2
v -5 1 -2
v -5 2 2
v -5 2 -2
v -5 3 2
v -5 3 -2
v -5 4 2
v -5 4 -2
v -5 5 2
v -5 5 -2
v -5 6 2
v -5 6 -2
v 0 1 4
v 0 1 3
v 0 1 -3
v 0 1 -4
v 0 2 4
v 0 2 3
v 0 2 -3
v 0 2 -4
v 0 5 4
v 0 5 3
v 0 5 -3
v 0 5 -4
v 0 6 4
v 0 6 3
v 0 6 -3
v 0 6 -4
v 1 2 5
v 1 2 4
v 1 2 -4
v 1 2 -5
v 1 3 5
v 1 3 4
v 1 3 3
v 1 3 -3
v 1 3 -4
v 1 3 -5
v 1 4 5
v 1 4 4
v 1 4 3
v 1 4 -3
v 1 4 -4
v 1 4 -5
v 1 5 5
v 1 5 4
v 1 5 -4
v 1 5 -5
v -5 1 4
v -5 1 3
v -5 1 -3
v -5 1 -4
v -5 2 5
v -5 2 4
v -5 2 3
v -5 2 -3
v -5 2 -4
v -5 2 -5
v -5 3 5
v -5 3 4
v -5 3 -4
v -5 3 -5
v -5 4 5
v -5 4 4
v -5 4 -4
v -5 4 -5
v -5 5 5
v -5 5 4
v -5 5 3
v -5 5 -3
v -5 5 -4
v -5 5 -5
v -5 6 4
v -5 6 3
v -5 6 -3
v -5 6 -4
v 1 0 3
v 1 0 -3
v 1 1 3
v 1 1 -3
v 1 2 3
v 1 2 2
v 1 2 -2
v 1 2 -3
v 1 3 3
v 1 3 2
v 1 3 -2
v 1 3 -3
v 1 4 3
v 1 4 2
v 1 4 -2
v 1 4 -3
v 1 5 3
v 1 5 2
v 1 5 -2
v 1 5 -3
v 1 6 3
v 1 6 -3
v 1 7 3
v 1 7 -3
v 2 1 5
v 2 1 -5
v 2 2 4
v 2 2 2
v 2 2 -2
v 2 2 -4
v 2 3 4
v 2 3 2
v 2 3 -2
v 2 3 -4
v 2 4 4
v 2 4 2
v 2 4 -2
v 2 4 -4
v 2 5 4
v 2 5 2
v 2 5 -2
v 2 5 -4
v 2 6 5
v 2 6 -5
v 3 3 1
v 3 3 -1
v 3 4 1
v 3 4 -1
v 6 2 2
v 6 2 -2
v 6 3 1
v 6 3 -1
v 6 4 1
v 6 4 -1
v 6 5 2
v 6 5 -2
v -6 1 5
v -6 6 5
v -5 2 5
v -5 3 5
v -5 4 5
v -5 5 5
v 1 2 5
v 1 3 5
v 1 4 5
v 1 5 5
v 2 1 5
v 2 6 5
v -6 0 3
v -6 1 3
v -6 2 3
v -6 5 3
v -6 6 3
v -6 7 3
v -5 1 3
v -5 2 3
v -5 5 3
v -5 6 3
v -4 0 3
v -4 7 3
v -3 0 3
v -3 7 3
v 0 1 3
v 0 2 3
v 0 5 3
v 0 6 3
v 1 0 3
v 1 1 3
v 1 2 3
v 1 3 3
v 1 4 3
v 1 5 3
v 1 6 3
v 1 7 3
v 1 2 2
v 1 3 2
v 1 4 2
v 1 5 2
v 2 2 2
v 2 3 2
v 2 4 2
v 2 5 2
v 6 2 2
v 6 5 2
v 3 3 -1
v 3 4 -1
v 6 3 -1
v 6 4 -1
v -6 1 -2
v -6 2 -2
v -6 3 -2
v -6 4 -2
v -6 5 -2
v -6 6 -2
v -5 1 -2
v -5 2 -2
v -5 3 -2
v -5 4 -2
v -5 5 -2
v -5 6 -2
v -6 2 -4
v -6 5 -4
v -5 1 -4
v -5 2 -4
v -5 3 -4
v -5 4 -4
v -5 5 -4
v -5 6 -4
v 0 1 -4
v 0 2 -4
v 0 5 -4
v 0 6 -4
v 1 2 -4
v 1 3 -4
v 1 4 -4
v 1 5 -4
v 2 2 -4
v 2 3 -4
v 2 4 -4
v 2 5 -4
v -6 2 4
v -6 5 4
v -5 1 4
v -5 2 4
v -5 3 4
v -5 4 4
v -5 5 4
v -5 6 4
v 0 1 4
v 0 2 4
v 0 5 4
v 0 6 4
v 1 2 4
v 1 3 4
v 1 4 4
v 1 5 4
v 2 2 4
v 2 3 4
v 2 4 4
v 2 5 4
v -6 1 2
v -6 2 2
v -6 3 2
v -6 4 2
v -6 5 2
v -6 6 2
v -5 1 2
v -5 2 2
v -5 3 2
v -5 4 2
v -5 5 2
v -5 6 2
v 3 3 1
v 3 4 1
v 6 3 1
v 6 4 1
v 1 2 -2
v 1 3 -2
v 1 4 -2
v 1 5 -2
v 2 2 -2
v 2 3 -2
v 2 4 -2
v 2 5 -2
v 6 2 -2
v 6 5 -2
v -6 0 -3
v -6 1 -3
v -6 2 -3
v -6 5 -3
v -6 6 -3
v -6 7 -3
v -5 1 -3
v -5 2 -3
v -5 5 -3
v -5 6 -3
v -4 0 -3
v -4 7 -3
v -3 0 -3
v -3 7 -3
v 0 1 -3
v 0 2 -3
v 0 5 -3
v 0 6 -3
v 1 0 -3
v 1 1 -3
v 1 2 -3
v 1 3 -3
v 1 4 -3
v 1 5 -3
v 1 6 -3
v 1 7 -3
v -6 1 -5
v -6 6 -5
v -5 2 -5
v -5 3 -5
v -5 4 -5
v -5 5 -5
v 1 2 -5
v 1 3 -5
v 1 4 -5
v 1 5 -5
v 2 1 -5
v 2 6 -5
v -6 0 3
v -4 0 3
v -3 0 3
v 1 0 3
v -4 0 2
v -3 0 2
v -4 0 1
v -3 0 1
v -2 0 1
v -4 0 -1
v -3 0 -1
v -2 0 -1
v -4 0 -2
v -3 0 -2
v -6 0 -3
v -4 0 -3
v -3 0 -3
v 1 0 -3
v -6 1 5
v 2 1 5
v -5 1 4
v 0 1 4
v -6 1 3
v -5 1 3
v 0 1 3
v 1 1 3
v -6 1 -3
v -5 1 -3
v 0 1 -3
v 1 1 -3
v -5 1 -4
v 0 1 -4
v -6 1 -5
v 2 1 -5
v -6 2 2
v -5 2 2
v 2 2 2
v 6 2 2
v -6 2 -2
v -5 2 -2
v 2 2 -2
v 6 2 -2
v -5 3 5
v 1 3 5
v -5 3 4
v 1 3 4
v 2 3 4
v 1 3 3
v 1 3 2
v 2 3 2
v 1 3 -2
v 2 3 -2
v 1 3 -3
v -5 3 -4
v 1 3 -4
v 2 3 -4
v -5 3 -5
v 1 3 -5
v -6 4 2
v -5 4 2
v 3 4 1
v 6 4 1
v 3 4 -1
v 6 4 -1
v -6 4 -2
v -5 4 -2
v -5 5 5
v 1 5 5
v -6 5 4
v -5 5 4
v 0 5 4
v 1 5 4
v 2 5 4
v -6 5 3
v -5 5 3
v 0 5 3
v 1 5 3
v 1 5 2
v 2 5 2
v 1 5 -2
v 2 5 -2
v -6 5 -3
v -5 5 -3
v 0 5 -3
v 1 5 -3
v -6 5 -4
v -5 5 -4
v 0 5 -4
v 1 5 -4
v 2 5 -4
v -5 5 -5
v 1 5 -5
v -6 6 2
v -5 6 2
v -6 6 -2
v -5 6 -2
v -6 1 2
v -5 1 2
v -6 1 -2
v -5 1 -2
v -5 2 5
v 1 2 5
v -6 2 4
v -5 2 4
v 0 2 4
v 1 2 4
v 2 2 4
v -6 2 3
v -5 2 3
v 0 2 3
v 1 2 3
v 1 2 2
v 2 2 2
v 1 2 -2
v 2 2 -2
v -6 2 -3
v -5 2 -3
v 0 2 -3
v 1 2 -3
v -6 2 -4
v -5 2 -4
v 0 2 -4
v 1 2 -4
v 2 2 -4
v -5 2 -5
v 1 2 -5
v -6 3 2
v -5 3 2
v 3 3 1
v 6 3 1
v 3 3 -1
v 6 3 -1
v -6 3 -2
v -5 3 -2
v -5 4 5
v 1 4 5
v -5 4 4
v 1 4 4
v 2 4 4
v 1 4 3
v 1 4 2
v 2 4 2
v 1 4 -2
v 2 4 -2
v 1 4 -3
v -5 4 -4
v 1 4 -4
v 2 4 -4
v -5 4 -5
v 1 4 -5
v -6 5 2
v -5 5 2
v 2 5 2
v 6 5 2
v -6 5 -2
v -5 5 -2
v 2 5 -2
v 6 5 -2
v -6 6 5
v 2 6 5
v -5 6 4
v 0 6 4
v -6 6 3
v -5 6 3
v 0 6 3
v 1 6 3
v -6 6 -3
v -5 6 -3
v 0 6 -3
v 1 6 -3
v -5 6 -4
v 0 6 -4
v -6 6 -5
v 2 6 -5
v -6 7 3
v -4 7 3
v -3 7 3
v 1 7 3
v -6 7 -3
v -4 7 -3
v -3 7 -3
v 1 7 -3

# faces
f 4/6/1 2/6/1 1/6/1
f 5/6/1 2/6/1 4/6/1
f 6/6/1 2/6/1 5/6/1
f 7/6/1 2/6/1 6/6/1
f 9/2/1 4/2/1 3/2/1
f 9/2/1 5/2/1 4/2/1
f 10/2/1 5/2/1 9/2/1
f 11/2/1 5/2/1 10/2/1
f 12/2/1 8/2/1 7/2/1
f 12/2/1 7/2/1 6/2/1
f 13/2/1 8/2/1 12/2/1
f 14/2/1 8/2/1 13/2/1
f 15/6/1 11/6/1 10/6/1
f 15/6/1 13/6/1 12/6/1
f 15/6/1 12/6/1 11/6/1
f 16/6/1 13/6/1 15/6/1
f 17/6/1 15/6/1 10/6/1
f 18/6/1 13/6/1 16/6/1
f 19/2/1 9/2/1 3/2/1
f 20/6/1 18/6/1 17/6/1
f 20/6/1 17/6/1 10/6/1
f 21/6/1 18/6/1 20/6/1
f 22/6/1 13/6/1 18/6/1
f 22/6/1 18/6/1 21/6/1
f 23/6/1 13/6/1 22/6/1
f 24/2/1 8/2/1 14/2/1
f 25/2/1 19/2/1 3/2/1
f 25/2/1 21/2/1 20/2/1
f 25/2/1 20/2/1 19/2/1
f 26/2/1 21/2/1 25/2/1
f 27/2/1 21/2/1 26/2/1
f 28/2/1 23/2/1 22/2/1
f 28/2/1 24/2/1 23/2/1
f 29/2/1 24/2/1 28/2/1
f 30/2/1 8/2/1 24/2/1
f 30/2/1 24/2/1 29/2/1
f 31/6/1 27/6/1 26/6/1
f 31/6/1 28/6/1 27/6/1
f 31/6/1 29/6/1 28/6/1
f 32/6/1 29/6/1 31/6/1
f 35/3/1 34/3/1 33/3/1
f 36/3/1 34/3/1 35/3/1
f 39/3/1 38/3/1 37/3/1
f 40/3/1 38/3/1 39/3/1
f 43/3/1 42/3/1 41/3/1
f 44/3/1 42/3/1 43/3/1
f 49/2/1 46/2/1 45/2/1
f 50/2/1 46/2/1 49/2/1
f 51/2/1 48/2/1 47/2/1
f 52/2/1 48/2/1 51/2/1
f 57/2/1 54/2/1 53/2/1
f 58/2/1 54/2/1 57/2/1
f 59/2/1 56/2/1 55/2/1
f 60/2/1 56/2/1 59/2/1
f 65/2/1 62/2/1 61/2/1
f 66/2/1 62/2/1 65/2/1
f 69/2/1 64/2/1 63/2/1
f 70/2/1 64/2/1 69/2/1
f 72/2/1 67/2/1 66/2/1
f 73/2/1 67/2/1 72/2/1
f 74/2/1 69/2/1 68/2/1
f 75/2/1 69/2/1 74/2/1
f 77/2/1 72/2/1 71/2/1
f 78/2/1 72/2/1 77/2/1
f 79/2/1 76/2/1 75/2/1
f 80/2/1 76/2/1 79/2/1
f 81/2/2 82/2/2 86/2/2
f 86/2/2 82/2/2 87/2/2
f 83/2/2 84/2/2 88/2/2
f 88/2/2 84/2/2 89/2/2
f 85/2/2 86/2/2 91/2/2
f 91/2/2 86/2/2 92/2/2
f 89/2/2 90/2/2 93/2/2
f 93/2/2 90/2/2 94/2/2
f 95/2/2 96/2/2 99/2/2
f 99/2/2 96/2/2 100/2/2
f 97/2/2 98/2/2 103/2/2
f 103/2/2 98/2/2 104/2/2
f 100/2/2 101/2/2 105/2/2
f 105/2/2 101/2/2 106/2/2
f 102/2/2 103/2/2 107/2/2
f 107/2/2 103/2/2 108/2/2
f 109/6/2 110/6/2 111/6/2
f 111/6/2 110/6/2 112/6/2
f 113/6/2 114/6/2 117/6/2
f 117/6/2 114/6/2 118/6/2
f 115/6/2 116/6/2 119/6/2
f 119/6/2 116/6/2 120/6/2
f 121/6/2 122/6/2 125/6/2
f 125/6/2 122/6/2 126/6/2
f 123/6/2 124/6/2 127/6/2
f 127/6/2 124/6/2 128/6/2
f 129/6/2 130/6/2 131/6/2
f 131/6/2 130/6/2 132/6/2
f 133/2/2 134/2/2 135/2/2
f 135/2/2 134/2/2 136/2/2
f 136/2/2 134/2/2 137/2/2
f 137/2/2 134/2/2 138/2/2
f 133/2/2 135/2/2 139/2/2
f 138/2/2 134/2/2 142/2/2
f 139/2/2 140/2/2 143/2/2
f 133/2/2 139/2/2 143/2/2
f 143/2/2 140/2/2 144/2/2
f 141/2/2 142/2/2 145/2/2
f 142/2/2 134/2/2 146/2/2
f 145/2/2 142/2/2 146/2/2
f 133/2/2 143/2/2 147/2/2
f 146/2/2 134/2/2 150/2/2
f 148/2/2 149/2/2 151/2/2
f 149/2/2 150/2/2 151/2/2
f 133/2/2 147/2/2 151/2/2
f 147/2/2 148/2/2 151/2/2
f 150/2/2 134/2/2 152/2/2
f 151/2/2 150/2/2 152/2/2
f 153/4/2 154/4/2 155/4/2
f 155/4/2 154/4/2 156/4/2
f 157/4/2 158/4/2 159/4/2
f 159/4/2 158/4/2 160/4/2
f 157/4/2 159/4/2 161/4/2
f 160/4/2 158/4/2 162/4/2
f 157/4/2 161/4/2 163/4/2
f 161/4/2 162/4/2 163/4/2
f 162/4/2 158/4/2 164/4/2
f 163/4/2 162/4/2 164/4/2
f 167/2/3 166/2/3 165/2/3
f 168/2/3 166/2/3 167/2/3
f 169/2/3 166/2/3 168/2/3
f 170/2/3 166/2/3 169/2/3
f 171/2/3 167/2/3 165/2/3
f 172/2/3 169/2/3 168/2/3
f 173/2/3 169/2/3 172/2/3
f 174/2/3 166/2/3 170/2/3
f 175/2/3 173/2/3 172/2/3
f 175/2/3 174/2/3 173/2/3
f 175/2/3 171/2/3 165/2/3
f 175/2/3 172/2/3 171/2/3
f 176/2/3 166/2/3 174/2/3
f 176/2/3 174/2/3 175/2/3
f 183/6/3 178/6/3 177/6/3
f 184/6/3 180/6/3 179/6/3
f 185/6/3 180/6/3 184/6/3
f 186/6/3 182/6/3 181/6/3
f 187/6/3 185/6/3 184/6/3
f 187/6/3 186/6/3 185/6/3
f 187/6/3 183/6/3 177/6/3
f 187/6/3 184/6/3 183/6/3
f 188/6/3 182/6/3 186/6/3
f 188/6/3 186/6/3 187/6/3
f 189/5/3 188/5/3 187/5/3
f 190/5/3 188/5/3 189/5/3
f 191/6/3 190/6/3 189/6/3
f 192/6/3 190/6/3 191/6/3
f 193/6/3 190/6/3 192/6/3
f 194/6/3 190/6/3 193/6/3
f 195/6/3 191/6/3 189/6/3
f 196/6/3 191/6/3 195/6/3
f 197/6/3 193/6/3 192/6/3
f 198/6/3 193/6/3 197/6/3
f 199/6/3 193/6/3 198/6/3
f 200/6/3 193/6/3 199/6/3
f 201/6/3 190/6/3 194/6/3
f 202/6/3 190/6/3 201/6/3
f 207/4/3 204/4/3 203/4/3
f 208/4/3 204/4/3 207/4/3
f 209/4/3 206/4/3 205/4/3
f 210/4/3 206/4/3 209/4/3
f 211/4/3 208/4/3 207/4/3
f 211/4/3 209/4/3 208/4/3
f 211/4/3 210/4/3 209/4/3
f 212/4/3 210/4/3 211/4/3
f 215/4/3 214/4/3 213/4/3
f 216/4/3 214/4/3 215/4/3
f 223/2/3 218/2/3 217/2/3
f 224/2/3 218/2/3 223/2/3
f 225/6/3 220/6/3 219/6/3
f 226/6/3 220/6/3 225/6/3
f 227/2/3 222/2/3 221/2/3
f 228/2/3 222/2/3 227/2/3
f 232/2/3 230/2/3 229/2/3
f 233/2/3 230/2/3 232/2/3
f 234/2/3 230/2/3 233/2/3
f 235/2/3 230/2/3 234/2/3
f 237/2/3 232/2/3 231/2/3
f 238/2/3 232/2/3 237/2/3
f 239/2/3 236/2/3 235/2/3
f 240/2/3 236/2/3 239/2/3
f 242/2/3 234/2/3 233/2/3
f 243/2/3 234/2/3 242/2/3
f 245/2/3 242/2/3 241/2/3
f 246/2/3 242/2/3 245/2/3
f 247/2/3 244/2/3 243/2/3
f 248/2/3 244/2/3 247/2/3
f 249/2/4 250/2/4 252/2/4
f 252/2/4 250/2/4 253/2/4
f 253/2/4 250/2/4 254/2/4
f 254/2/4 250/2/4 255/2/4
f 251/2/4 252/2/4 257/2/4
f 257/2/4 252/2/4 258/2/4
f 255/2/4 256/2/4 259/2/4
f 259/2/4 256/2/4 260/2/4
f 253/2/4 254/2/4 262/2/4
f 262/2/4 254/2/4 263/2/4
f 261/2/4 262/2/4 265/2/4
f 265/2/4 262/2/4 266/2/4
f 263/2/4 264/2/4 267/2/4
f 267/2/4 264/2/4 268/2/4
f 269/2/4 270/2/4 275/2/4
f 275/2/4 270/2/4 276/2/4
f 271/6/4 272/6/4 277/6/4
f 277/6/4 272/6/4 278/6/4
f 273/2/4 274/2/4 279/2/4
f 279/2/4 274/2/4 280/2/4
f 281/4/4 282/4/4 283/4/4
f 283/4/4 282/4/4 284/4/4
f 285/4/4 286/4/4 289/4/4
f 289/4/4 286/4/4 290/4/4
f 287/4/4 288/4/4 291/4/4
f 291/4/4 288/4/4 292/4/4
f 289/4/4 290/4/4 293/4/4
f 290/4/4 291/4/4 293/4/4
f 291/4/4 292/4/4 293/4/4
f 293/4/4 292/4/4 294/4/4
f 295/6/4 296/6/4 301/6/4
f 297/6/4 298/6/4 302/6/4
f 302/6/4 298/6/4 303/6/4
f 299/6/4 300/6/4 304/6/4
f 302/6/4 303/6/4 305/6/4
f 303/6/4 304/6/4 305/6/4
f 295/6/4 301/6/4 305/6/4
f 301/6/4 302/6/4 305/6/4
f 304/6/4 300/6/4 306/6/4
f 305/6/4 304/6/4 306/6/4
f 305/5/4 306/5/4 307/5/4
f 307/5/4 306/5/4 308/5/4
f 307/6/4 308/6/4 309/6/4
f 309/6/4 308/6/4 310/6/4
f 310/6/4 308/6/4 311/6/4
f 311/6/4 308/6/4 312/6/4
f 307/6/4 309/6/4 313/6/4
f 313/6/4 309/6/4 314/6/4
f 310/6/4 311/6/4 315/6/4
f 315/6/4 311/6/4 316/6/4
f 316/6/4 311/6/4 317/6/4
f 317/6/4 311/6/4 318/6/4
f 312/6/4 308/6/4 319/6/4
f 319/6/4 308/6/4 320/6/4
f 321/2/4 322/2/4 323/2/4
f 323/2/4 322/2/4 324/2/4
f 324/2/4 322/2/4 325/2/4
f 325/2/4 322/2/4 326/2/4
f 321/2/4 323/2/4 327/2/4
f 324/2/4 325/2/4 328/2/4
f 328/2/4 325/2/4 329/2/4
f 326/2/4 322/2/4 330/2/4
f 328/2/4 329/2/4 331/2/4
f 329/2/4 330/2/4 331/2/4
f 321/2/4 327/2/4 331/2/4
f 327/2/4 328/2/4 331/2/4
f 330/2/4 322/2/4 332/2/4
f 331/2/4 330/2/4 332/2/4
f 337/6/5 334/6/5 333/6/5
f 337/5/5 335/5/5 334/5/5
f 338/6/5 336/6/5 335/6/5
f 338/5/5 335/5/5 337/5/5
f 339/6/5 337/6/5 333/6/5
f 339/3/5 338/3/5 337/3/5
f 340/6/5 336/6/5 338/6/5
f 340/3/5 338/3/5 339/3/5
f 341/6/5 336/6/5 340/6/5
f 342/6/5 339/6/5 333/6/5
f 342/1/5 340/1/5 339/1/5
f 342/1/5 341/1/5 340/1/5
f 343/1/5 341/1/5 342/1/5
f 344/6/5 336/6/5 341/6/5
f 344/1/5 341/1/5 343/1/5
f 345/3/5 343/3/5 342/3/5
f 345/6/5 342/6/5 333/6/5
f 346/6/5 344/6/5 343/6/5
f 346/3/5 343/3/5 345/3/5
f 347/6/5 345/6/5 333/6/5
f 348/5/5 346/5/5 345/5/5
f 348/6/5 345/6/5 347/6/5
f 349/6/5 344/6/5 346/6/5
f 349/5/5 346/5/5 348/5/5
f 350/6/5 336/6/5 344/6/5
f 350/6/5 344/6/5 349/6/5
f 353/2/5 352/2/5 351/2/5
f 354/2/5 352/2/5 353/2/5
f 355/2/5 353/2/5 351/2/5
f 356/2/5 353/2/5 355/2/5
f 357/2/5 352/2/5 354/2/5
f 358/2/5 352/2/5 357/2/5
f 362/2/5 352/2/5 358/2/5
f 363/2/5 360/2/5 359/2/5
f 364/2/5 362/2/5 361/2/5
f 365/2/5 363/2/5 359/2/5
f 365/2/5 364/2/5 363/2/5
f 366/2/5 362/2/5 364/2/5
f 366/2/5 364/2/5 365/2/5
f 366/2/5 352/2/5 362/2/5
f 371/6/5 368/6/5 367/6/5
f 372/6/5 368/6/5 371/6/5
f 373/4/5 370/4/5 369/4/5
f 374/4/5 370/4/5 373/4/5
f 377/2/5 376/2/5 375/2/5
f 378/2/5 376/2/5 377/2/5
f 380/2/5 379/2/5 378/2/5
f 381/2/5 379/2/5 380/2/5
f 382/2/5 379/2/5 381/2/5
f 385/2/5 384/2/5 383/2/5
f 387/2/5 384/2/5 385/2/5
f 388/2/5 384/2/5 387/2/5
f 389/2/5 387/2/5 386/2/5
f 390/2/5 387/2/5 389/2/5
f 395/4/5 394/4/5 393/4/5
f 396/4/5 394/4/5 395/4/5
f 397/6/5 392/6/5 391/6/5
f 398/6/5 392/6/5 397/6/5
f 402/2/5 400/2/5 399/2/5
f 403/2/5 400/2/5 402/2/5
f 404/2/5 400/2/5 403/2/5
f 406/2/5 402/2/5 401/2/5
f 407/2/5 402/2/5 406/2/5
f 408/2/5 405/2/5 404/2/5
f 408/2/5 404/2/5 403/2/5
f 409/2/5 405/2/5 408/2/5
f 410/2/5 405/2/5 409/2/5
f 411/2/5 405/2/5 410/2/5
f 417/2/5 413/2/5 412/2/5
f 418/2/5 415/2/5 414/2/5
f 419/2/5 415/2/5 418/2/5
f 420/2/5 417/2/5 416/2/5
f 421/2/5 413/2/5 417/2/5
f 421/2/5 417/2/5 420/2/5
f 422/2/5 413/2/5 421/2/5
f 423/2/5 420/2/5 419/2/5
f 423/2/5 421/2/5 420/2/5
f 424/2/5 421/2/5 423/2/5
f 427/6/5 426/6/5 425/6/5
f 428/6/5 426/6/5 427/6/5
f 429/6/6 430/6/6 431/6/6
f 431/6/6 430/6/6 432/6/6
f 433/2/6 434/2/6 436/2/6
f 436/2/6 434/2/6 437/2/6
f 437/2/6 434/2/6 438/2/6
f 435/2/6 436/2/6 440/2/6
f 440/2/6 436/2/6 441/2/6
f 438/2/6 439/2/6 442/2/6
f 437/2/6 438/2/6 442/2/6
f 442/2/6 439/2/6 443/2/6
f 443/2/6 439/2/6 444/2/6
f 444/2/6 439/2/6 445/2/6
f 446/2/6 447/2/6 451/2/6
f 448/2/6 449/2/6 452/2/6
f 452/2/6 449/2/6 453/2/6
f 450/2/6 451/2/6 454/2/6
f 451/2/6 447/2/6 455/2/6
f 454/2/6 451/2/6 455/2/6
f 455/2/6 447/2/6 456/2/6
f 453/2/6 454/2/6 457/2/6
f 454/2/6 455/2/6 457/2/6
f 457/2/6 455/2/6 458/2/6
f 461/4/6 462/4/6 463/4/6
f 463/4/6 462/4/6 464/4/6
f 459/6/6 460/6/6 465/6/6
f 465/6/6 460/6/6 466/6/6
f 467/2/6 468/2/6 469/2/6
f 469/2/6 468/2/6 470/2/6
f 470/2/6 471/2/6 472/2/6
f 472/2/6 471/2/6 473/2/6
f 473/2/6 471/2/6 474/2/6
f 475/2/6 476/2/6 477/2/6
f 477/2/6 476/2/6 479/2/6
f 479/2/6 476/2/6 480/2/6
f 478/2/6 479/2/6 481/2/6
f 481/2/6 479/2/6 482/2/6
f 483/6/6 484/6/6 487/6/6
f 487/6/6 484/6/6 488/6/6
f 485/4/6 486/4/6 489/4/6
f 489/4/6 486/4/6 490/4/6
f 491/2/6 492/2/6 493/2/6
f 493/2/6 492/2/6 494/2/6
f 491/2/6 493/2/6 495/2/6
f 495/2/6 493/2/6 496/2/6
f 494/2/6 492/2/6 497/2/6
f 497/2/6 492/2/6 498/2/6
f 498/2/6 492/2/6 502/2/6
f 499/2/6 500/2/6 503/2/6
f 501/2/6 502/2/6 504/2/6
f 499/2/6 503/2/6 505/2/6
f 503/2/6 504/2/6 505/2/6
f 504/2/6 502/2/6 506/2/6
f 505/2/6 504/2/6 506/2/6
f 502/2/6 492/2/6 506/2/6
f 507/6/6 508/6/6 511/6/6
f 508/5/6 509/5/6 512/5/6
f 511/6/6 508/6/6 512/6/6
f 509/6/6 510/6/6 513/6/6
f 512/5/6 509/5/6 513/5/6
f 513/6/6 510/6/6 514/6/6
